<?xml version="1.0" encoding="utf-8"?>
<!-- Generator: Adobe Illustrator 17.0.0, SVG Export Plug-In . SVG Version: 6.00 Build 0)  -->
<!DOCTYPE svg PUBLIC "-//W3C//DTD SVG 1.1//EN" "http://www.w3.org/Graphics/SVG/1.1/DTD/svg11.dtd">
<svg version="1.1" id="Layer_1" xmlns="http://www.w3.org/2000/svg" xmlns:xlink="http://www.w3.org/1999/xlink" x="0px" y="0px"
	 width="416px" height="163px" viewBox="0 0 416 163" enable-background="new 0 0 416 163" xml:space="preserve">
<g>
	<path fill="#5899CC" d="M74.874,14.779v-0.026c-0.004-0.004-0.004-0.008-0.002-0.004c0,0-0.014,0.011-0.016,0.007
		c-0.005,0-0.014-0.012-0.014-0.012c-0.002,0.008-0.003,0.008-0.003,0.008v0.029c-0.617,0.666-11.029,12.229-0.31,22.524v0.026
		l0.004,0.003c0.004-0.006,0.007-0.012,0.016-0.013c0.002,0,0.006,0.007,0.012,0.013V37.33v-0.024
		C85.561,27.325,75.468,15.463,74.874,14.779z"/>
	<path fill="#5899CC" d="M57.966,16.652l-0.009-0.026c-0.006-0.003-0.006-0.003-0.002-0.003c0,0-0.011,0.016-0.014,0.015
		c-0.004,0-0.014-0.008-0.014-0.008c0,0.004-0.004,0.004-0.004,0.008l0.007,0.029c-0.435,0.798-7.727,14.655,5.149,21.894
		l0.005,0.026h0.006c0.002-0.003,0.005-0.01,0.01-0.013c0.004,0,0.007,0.006,0.014,0.01v-0.007l-0.004-0.023
		C71.35,26.083,58.706,17.164,57.966,16.652z"/>
	<path fill="#5899CC" d="M42.038,22.776l-0.014-0.023c-0.005-0.003-0.005-0.003-0.004-0.003c0,0-0.004,0.018-0.007,0.018
		c-0.007,0-0.018-0.004-0.018-0.004c0,0.004,0,0.004,0,0.007l0.012,0.028c-0.228,0.883-3.942,16.162,10.282,19.899l0.011,0.025
		h0.005c0.002-0.008,0.006-0.012,0.009-0.021c0.004,0,0.007,0.003,0.014,0.009v-0.006l-0.01-0.021
		C57.285,28.503,42.879,23.082,42.038,22.776z"/>
	<path fill="#5899CC" d="M28.088,32.761l-0.018-0.018c-0.007,0-0.007,0-0.005,0c0,0-0.002,0.016-0.004,0.016
		c-0.004,0.006-0.018,0.002-0.018,0.002c0.002,0.004,0.002,0.004,0.004,0.007l0.016,0.021c-0.005,0.918,0.093,16.66,14.776,16.66
		l0.014,0.018l0.005-0.002c-0.002-0.005,0-0.011,0.006-0.018c0.002-0.002,0.007,0.002,0.014,0.002v-0.005l-0.018-0.019
		C44.245,34.427,28.978,32.846,28.088,32.761z"/>
	<path fill="#5899CC" d="M16.992,45.99l-0.021-0.011c-0.007,0-0.007-0.004-0.007-0.004s0.006,0.019,0.002,0.019
		c-0.002,0.004-0.016,0.007-0.016,0.007c0.003,0.003,0.002,0.003,0.003,0.005l0.023,0.017c0.214,0.892,4.118,16.117,18.34,12.377
		l0.019,0.015l0.006-0.004c-0.004-0.005-0.004-0.011-0.002-0.018c0.002-0.003,0.009,0,0.016-0.003l-0.003-0.006l-0.02-0.012
		C33.045,43.487,17.873,45.844,16.992,45.99z"/>
	<path fill="#5899CC" d="M9.44,61.629l-0.025-0.003c-0.004,0-0.004,0-0.004-0.002c0,0,0.007,0.016,0.004,0.018
		c0,0.005-0.014,0.009-0.014,0.009c0.004,0.004,0.004,0.004,0.007,0.006l0.025,0.011c0.425,0.807,7.887,14.563,20.76,7.318
		l0.021,0.007l0.004-0.003c-0.004-0.003-0.004-0.01-0.004-0.018c0-0.004,0.007-0.004,0.014-0.006l-0.004-0.004l-0.023-0.008
		C24.387,55.118,10.26,61.264,9.44,61.629z"/>
	<path fill="#5899CC" d="M5.908,78.705H5.883c-0.005,0.004-0.005,0.004-0.005,0c0,0,0.012,0.015,0.009,0.016
		c-0.002,0.006-0.012,0.015-0.012,0.015c0.007,0.002,0.005,0.002,0.007,0.004l0.028,0.003c0.606,0.673,11.161,12.098,21.879,1.801
		l0.025,0.002l0.002-0.006c-0.006-0.004-0.007-0.007-0.009-0.017c0-0.004,0.006-0.006,0.012-0.009l-0.005-0.002l-0.025-0.003
		C18.811,68.588,6.614,78.143,5.908,78.705z"/>
	<path fill="#5899CC" d="M6.616,96.145l-0.025,0.007c-0.004,0.003-0.004,0.002-0.004,0.002s0.014,0.009,0.012,0.012
		c0,0.006-0.009,0.017-0.009,0.017c0.007,0,0.004,0.002,0.007,0.002l0.028-0.004c0.749,0.499,13.737,8.878,21.63-3.826l0.025-0.005
		v-0.004c-0.005-0.006-0.009-0.009-0.014-0.014c0-0.002,0.006-0.008,0.011-0.015h-0.005l-0.023,0.003
		C16.667,83.06,7.161,95.422,6.616,96.145z"/>
	<path fill="#5899CC" d="M11.517,112.859l-0.023,0.015c-0.002,0.003-0.002,0.003-0.004,0.002c0,0,0.018,0.005,0.016,0.009
		c0.002,0.003-0.004,0.018-0.004,0.018c0.006,0,0.006,0,0.006,0l0.028-0.012c0.845,0.293,15.454,5.103,20.027-9.215l0.023-0.013
		l-0.002-0.003c-0.004-0.002-0.009-0.005-0.014-0.009c-0.004-0.002,0.002-0.007,0.005-0.016h-0.004l-0.023,0.011
		C18.09,97.622,11.872,112.017,11.517,112.859z"/>
	<path fill="#5899CC" d="M20.308,127.801l-0.018,0.02c-0.004,0.004-0.004,0.004-0.004,0.002c0,0,0.016,0.002,0.018,0.007
		c0,0.003,0,0.02,0,0.02c0.004-0.006,0.005-0.003,0.005-0.006l0.023-0.016c0.891,0.07,16.206,1.007,17.172-14.029l0.022-0.016
		l-0.004-0.005c-0.004-0.002-0.009-0.002-0.018-0.006c0-0.002,0.002-0.007,0.004-0.018l-0.004,0.003l-0.021,0.015
		C22.991,111.367,20.447,126.897,20.308,127.801z"/>
	<path fill="#5899CC" d="M32.435,140.038l-0.011,0.022c-0.002,0.007-0.002,0.006-0.002,0.006s0.016-0.004,0.016,0
		c0.004,0.003,0.007,0.018,0.007,0.018c0.004-0.003,0.004-0.002,0.004-0.003l0.02-0.024c0.879-0.16,15.94-3.153,13.241-17.965
		l0.016-0.021l-0.005-0.005c-0.004,0-0.009,0.002-0.018,0c-0.002,0,0-0.007,0-0.019l-0.004,0.004l-0.016,0.02
		C31.062,123.433,32.353,139.127,32.435,140.038z"/>
	<path fill="#5899CC" d="M47.144,148.8l-0.007,0.026c0.004,0.009,0,0.007,0,0.007s0.016-0.009,0.02-0.003
		c0.002,0.002,0.009,0.015,0.009,0.015c0.003-0.006,0.003-0.004,0.003-0.006l0.013-0.027c0.813-0.379,14.678-7.114,8.484-20.774
		l0.007-0.026l-0.004-0.002c-0.004,0-0.011,0.002-0.018,0.002c-0.004,0.002-0.004-0.009-0.006-0.016L55.641,128l-0.009,0.023
		C41.799,133.069,46.844,147.939,47.144,148.8z"/>
	<path fill="#5899CC" d="M63.51,153.545v0.026c0.004,0.007,0.002,0.006,0.002,0.006s0.013-0.011,0.018-0.007
		c0.002,0,0.012,0.013,0.012,0.013c0-0.006,0.002-0.006,0.002-0.006l0.005-0.031c0.697-0.575,12.502-10.633,3.195-22.284
		l0.004-0.028l-0.007-0.002c-0.004,0.002-0.007,0.007-0.014,0.009c-0.004,0.002-0.005-0.007-0.009-0.015l-0.004,0.006l-0.005,0.024
		C54.528,139.664,63.011,152.788,63.51,153.545z"/>
	<path fill="#5899CC" d="M80.515,153.972l0.005,0.025c0.006,0.005,0.002,0.005,0.002,0.003c0,0,0.01-0.015,0.016-0.011
		c0.002,0.002,0.014,0.009,0.014,0.009c0-0.006,0.002-0.006,0.002-0.006l-0.004-0.033c0.535-0.732,9.539-13.481-2.292-22.399
		l-0.004-0.026h-0.006c-0.004,0.003-0.006,0.006-0.013,0.01c-0.002,0.002-0.005-0.004-0.013-0.01l-0.002,0.006l0.002,0.024
		C68.456,142.814,79.847,153.364,80.515,153.972z"/>
	<path fill="#5899CC" d="M97.089,150.054l0.01,0.021c0.007,0.007,0.004,0.007,0.004,0.006c0,0,0.006-0.016,0.012-0.015
		c0.002,0,0.016,0.004,0.016,0.004c0-0.004,0-0.004,0-0.006l-0.01-0.03c0.342-0.847,5.979-15.493-7.64-21.117l-0.007-0.025
		l-0.009,0.004c0,0.003-0.002,0.007-0.009,0.012c-0.002,0.002-0.007-0.003-0.013-0.007l-0.002,0.006l0.009,0.024
		C82.708,142.316,96.296,149.635,97.089,150.054z"/>
	<path fill="#5899CC" d="M112.195,142.038l0.018,0.021c0.007,0.002,0.006,0.003,0.003,0.002c0,0,0.002-0.018,0.01-0.018l0.018,0.002
		c-0.004-0.006-0.002-0.006-0.004-0.006l-0.016-0.026c0.127-0.907,2.047-16.531-12.506-18.511l-0.014-0.022l-0.008,0.004
		c0,0.005,0,0.009-0.005,0.017c-0.002,0.002-0.007-0.002-0.014-0.004v0.004l0.013,0.021
		C96.395,138.203,111.326,141.835,112.195,142.038z"/>
	<path fill="#5899CC" d="M124.892,130.425l0.023,0.012c0.007,0,0.003,0.003,0.002,0c0,0-0.002-0.014,0.006-0.016
		c0-0.002,0.016-0.005,0.016-0.005c-0.004-0.004-0.002-0.004-0.004-0.006l-0.021-0.021c-0.099-0.909-2.017-16.531-16.593-14.743
		l-0.018-0.019l-0.006,0.006c0,0.003,0,0.007,0,0.018c0,0.002-0.011,0-0.014-0.002v0.006l0.018,0.018
		C108.659,130.734,124.003,130.449,124.892,130.425z"/>
	<path fill="#5899CC" d="M134.382,115.94l0.025,0.007c0.007,0,0.007,0.002,0.004,0.002c0,0-0.007-0.017,0-0.022l0.016-0.005
		c-0.006-0.004-0.006-0.004-0.007-0.007l-0.025-0.013c-0.314-0.858-5.949-15.502-19.639-10.058l-0.021-0.013l-0.007,0.009
		c0.002,0.004,0.005,0.006,0.005,0.016c0.002,0.003-0.009,0.003-0.016,0.003l0.004,0.005l0.021,0.013
		C118.732,120.376,133.527,116.191,134.382,115.94z"/>
	<path fill="#5899CC" d="M140.074,99.491l0.025,0.002c0.009-0.003,0.007,0,0.007,0s-0.011-0.015-0.007-0.02
		c0-0.002,0.014-0.012,0.014-0.012c-0.006-0.003-0.004-0.003-0.007-0.003l-0.029-0.007c-0.511-0.752-9.513-13.502-21.457-4.739
		l-0.025-0.009l-0.002,0.011c0,0.004,0.005,0.006,0.007,0.013c0,0.002-0.007,0.003-0.014,0.009l0.003,0.004l0.025,0.005
		C125.985,107.772,139.307,99.952,140.074,99.491z"/>
	<path fill="#5899CC" d="M141.61,82.108l0.025-0.006c0.006-0.004,0.006-0.002,0.006-0.002s-0.014-0.011-0.013-0.016
		c0.003-0.004,0.01-0.017,0.01-0.017c-0.005,0-0.003-0.002-0.007,0h-0.028c-0.678-0.599-12.48-10.658-21.931,0.873h-0.027v0.01
		c0.004,0.002,0.007,0.005,0.011,0.012c0.002,0.002-0.007,0.006-0.011,0.011l0.004,0.002h0.025
		C129.964,93.718,140.976,82.748,141.61,82.108z"/>
	<path fill="#5899CC" d="M138.893,64.876l0.023-0.013c0.005-0.003,0.005-0.002,0.005-0.002s-0.018-0.005-0.014-0.013
		c0-0.002,0.007-0.016,0.007-0.016c-0.007,0.002-0.007,0-0.007,0.002l-0.028,0.006c-0.8-0.404-14.668-7.144-21.038,6.431
		l-0.023,0.008l0.002,0.008c0.003,0.002,0.007,0.004,0.014,0.012c0.002,0-0.007,0.005-0.009,0.011l0.005,0.002l0.023-0.006
		C130.421,79.089,138.435,65.66,138.893,64.876z"/>
	<path fill="#5899CC" d="M132.097,48.877l0.018-0.019c0.003-0.006,0.006-0.003,0.003-0.002c0,0-0.018-0.004-0.018-0.011
		c0-0.002,0.004-0.018,0.004-0.018c-0.006,0.003-0.006,0.002-0.007,0.003l-0.026,0.015c-0.873-0.191-15.934-3.184-18.821,11.587
		l-0.022,0.013l0.002,0.007c0.003,0.003,0.01,0.003,0.016,0.007c0.003,0-0.004,0.008-0.006,0.015h0.006l0.023-0.012
		C127.326,64.804,131.842,49.753,132.097,48.877z"/>
	<path fill="#5899CC" d="M121.642,35.108l0.014-0.022c0.002-0.007,0.004-0.006,0.004-0.004c0,0-0.018,0.004-0.02-0.005
		c-0.002-0.002-0.002-0.018-0.002-0.018c-0.005,0.005-0.005,0.005-0.007,0.005l-0.021,0.022
		c-0.892,0.039-16.207,0.971-15.431,16.018l-0.016,0.018l0.004,0.007c0.005,0,0.01,0,0.018,0.002c0.003,0-0.002,0.009-0.002,0.016
		h0.005l0.018-0.021C120.872,51.753,121.606,36.022,121.642,35.108z"/>
	<path fill="#5899CC" d="M121.785,5.242l0.01-0.03c0.003-0.007,0.003-0.006,0.003-0.006s-0.021,0.006-0.022-0.002
		c-0.002-0.002-0.01-0.018-0.01-0.018c-0.002,0.007-0.002,0.007-0.003,0.007l-0.022,0.026c-0.998,0.229-18.131,4.453-14.298,21.306
		l-0.016,0.021l0.007,0.008c0.005,0,0.009-0.002,0.019,0c0.004,0,0,0.011,0,0.017h0.007l0.014-0.028
		C124.182,24.22,121.924,6.282,121.785,5.242z"/>
	<path fill="#5899CC" d="M92.567,17.52l0.004-0.026c-0.002-0.007,0-0.004,0-0.004s-0.014,0.007-0.018,0.004
		c-0.002,0-0.01-0.015-0.01-0.015c-0.002,0.007-0.002,0.006-0.004,0.007l-0.007,0.03c-0.764,0.472-13.757,8.85-6.025,21.66
		l-0.008,0.022l0.01,0.004c0.002,0,0.005-0.004,0.016-0.004c0-0.004,0,0.007,0.003,0.012l0.005-0.002l0.006-0.026
		C99.691,32.494,92.965,18.34,92.567,17.52z"/>
	<g>
		<g>
			<g>
				<path fill="#5899CC" d="M101.848,80.542c-3.186-2.32-14.722-9.504-30.845-5.476c-3.407,0.852-6.108,2.338-8.026,4.418
					c-3.136,3.398-3.539,7.67-3.478,10.038c2.878-2.018,9.889-5.447,22.136-2.821c0.591,0.128,1.479,0.346,2.096,0.501l-0.287,0.82
					l0.014-0.005c-0.105,0.349-0.232,0.687-0.369,1.021l-0.032,0.09c-0.002-0.001-0.005-0.001-0.007-0.002
					c-1.645,3.903-5.424,6.639-9.831,6.639c-4.219,0-7.854-2.512-9.599-6.151c-2.847,1.202-4.195,2.569-4.225,2.601l-1.323,1.392
					L57.705,91.7c-0.06-0.321-1.437-7.914,3.83-13.619c2.186-2.369,5.213-4.049,9-4.996c4.169-1.042,8.048-1.366,11.578-1.229
					c-0.067-0.012-0.108-0.019-0.108-0.019c7.743-0.621,11.559-4.299,13.279-6.787c-5.365-6.317-13.258-10.314-22.065-10.314
					c-16.164,0-29.264,13.445-29.264,30.032c0,16.588,13.1,30.034,29.264,30.034c16.163,0,29.266-13.446,29.266-30.034
					c0-1.352-0.103-2.679-0.273-3.984L101.848,80.542z"/>
			</g>
		</g>
		<path fill="#5899CC" d="M94.636,48.243c0,0-5.481,5.979-21.337,6.241c-1.047,0.018-2.728,0.511-3.83,0.442l20.366,14.759
			C89.835,69.686,102.496,64.219,94.636,48.243z"/>
		<path fill="#5899CC" d="M78.565,74.272c0,0,4.183-1.891,23.191,3.337c0,0,1.249,3.98,0.571,9.729"/>
	</g>
	<path fill="#5899CC" d="M318.368,98.607c-0.865-0.133-2.173-0.174-3.538,0.273c0,0-1.3,0.496-1.763,0.878
		c-0.002,0.01-0.006,0.019-0.008,0.03c-0.512,0.369-1.013,0.815-1.472,1.409c-0.967,1.91-2.569,2.888-4.838,2.888
		c-1.888,0-3.367-0.591-4.446-1.764c-0.974-1.592-1.466-3.884-1.466-6.889v-7.59c0-5.06,2.092-7.591,6.277-7.591
		c0.959,0,1.68,0.09,2.161,0.269c-0.066,0.167-0.252,0.386-0.568,0.662c-0.91,0.811-1.364,1.589-1.364,2.333
		c0,0.36,0.203,1.245,0.707,1.929c0.411,0.558,1.104,0.944,1.384,1.116c0.928,0.569,2.119,0.855,3.575,0.855
		c1.637,0,3.002-0.345,4.093-1.036c1.092-0.69,1.637-1.615,1.637-2.776c0-0.507-0.196-1.77-1.001-2.869
		c-0.898-1.225-2.451-2.285-3.218-2.69c-2.346-1.237-5.249-1.856-8.706-1.856c-5.095,0-9.324,1.342-12.69,4.025
		s-5.048,6.841-5.048,12.469c0,4.341,1.054,7.764,3.125,10.298c0.648,0.978,1.411,1.855,2.322,2.604
		c3.166,2.608,7.204,3.91,12.117,3.91c8.332,0,12.827-3.449,13.482-10.35l0.015-0.464C319.159,98.702,318.624,98.607,318.368,98.607
		z M263.681,76.188c-4.694,0-8.569,1.287-11.626,3.861c-3.056,2.574-4.584,6.664-4.584,12.272c0,4.706,1.127,8.396,3.379,11.072
		c0.504,0.731,1.066,1.408,1.713,2.011c2.928,2.727,7.104,4.09,12.526,4.09c5.349,0,9.442-1.391,12.281-4.172
		c2.838-2.782,4.257-6.736,4.257-11.862c0-4.817-1.131-8.565-3.383-11.25C275.5,78.204,270.655,76.188,263.681,76.188z
		 M268.975,97.053c0,3.154-0.374,5.318-1.119,6.489c-0.746,1.173-1.92,1.759-3.52,1.759c-1.311,0-2.33-0.373-3.073-1.103
		c-0.044-0.08-0.092-0.154-0.131-0.238c-0.709-1.523-1.064-4.256-1.064-8.198v-7.426c0-5.301,1.583-7.952,4.749-7.952
		c1.264,0,2.266,0.385,3.012,1.145c0.764,1.392,1.146,3.959,1.146,7.705V97.053z M210.031,102.769
		c-0.029-0.016-0.048-0.037-0.074-0.054c-0.028-0.121-0.046-0.247-0.046-0.384V93.13c0-0.268,0.009-0.561,0.024-0.87
		c-0.227-1.885-0.882-3.156-1.703-4.006c-0.302-0.312-1.657-1.245-2.856-1.481c-1.374-0.27-2.482-0.236-2.482-0.236h-9.073
		c-0.91,0-1.364,0.252-1.364,0.756v1.379c0,0.3,0.235,0.543,0.699,0.729v0.213c0,0.394,0.4,0.691,1.201,0.888
		c1.421,0.361,2.391,0.771,2.963,1.222c0.207,0.502,0.323,1.127,0.323,1.91v7.097c0,2.76-1.602,4.14-4.803,4.14
		c-1.493,0-2.793-0.274-3.903-0.821c-0.622-0.306-1.19-0.778-1.714-1.383c-0.154-0.238-0.309-0.475-0.453-0.745
		c-0.801-1.5-1.493-3.721-2.074-6.665c-0.582-2.944-0.874-6.693-0.874-11.246c0-4.334,0.301-8.685,0.901-13.051
		c0.6-4.367,1.61-7.152,3.029-8.356s3.22-1.807,5.403-1.807c3.043,0,5.462,1.171,7.283,3.458c0.602,0.937,1.127,2.019,1.569,3.257
		c0.473,1.292,0.804,2.777,1.524,3.028c0.152,0.053,0.63,0.148,1.358,0.148h2.292c0.909,0,1.364-0.317,1.364-0.953V58.894
		c0-0.394-0.247-0.645-0.699-0.777v-0.165c0-0.592-0.51-0.888-1.528-0.888h-2.129c-0.327,0-0.728,0.068-1.201,0.2
		c-0.619,0.179-1.037,0.268-1.255,0.268c-0.437,0-1.037-0.11-1.802-0.331c-2.619-0.748-5.04-1.123-7.259-1.123
		c-4.44,0-8.615,1.433-12.526,4.302c-3.912,2.867-6.668,6.409-8.269,10.622c-1.602,4.215-2.401,8.631-2.401,13.25
		c0,7.209,1.648,12.801,4.921,16.798c3.994,5.592,10.812,8.41,20.502,8.41c3.493,0,6.658-0.307,9.497-0.92
		c2.838-0.614,4.711-1.112,5.622-1.495c0.909-0.384,1.364-0.805,1.364-1.266v-1.182c0-0.187-0.054-0.949-0.337-1.332
		C210.763,102.884,210.249,102.879,210.031,102.769z M339.542,105.07c-0.639-0.197-1.141-0.451-1.519-0.758
		c-0.084-0.227-0.13-0.47-0.13-0.731V83.726c-0.129-1.191-0.699-2.425-0.699-2.425c-1.222-2.928-3.542-3.978-5.394-4.327
		l-7.542,0.134c-0.801,0.022-1.201,0.233-1.201,0.631v1.23c0,0.166,0.163,0.729,0.56,1.155c0.314,0.337,0.833,0.554,1.122,0.652
		c0.633,0.195,1.132,0.45,1.509,0.76c0.091,0.244,0.139,0.507,0.139,0.793v20.312c0,1.161-0.764,1.969-2.292,2.429
		c-0.691,0.197-1.037,0.516-1.037,0.953v1.216c0,0.317-0.08,1.566,0.721,1.566h16.243c0.8,0,1.201-0.207,1.201-0.624v-1.215
		c0-0.179-0.045-0.797-0.399-1.211C340.491,105.364,339.859,105.176,339.542,105.07z M327.215,68.314
		c1.273,0.766,2.819,1.149,4.639,1.149c1.783,0,3.311-0.383,4.585-1.149c1.273-0.768,1.911-1.688,1.911-2.761
		c0-0.406-0.275-1.427-0.851-2.225c-0.542-0.748-1.375-1.279-1.759-1.51c-1.274-0.766-2.857-1.149-4.748-1.149
		c-1.602,0-3.067,0.372-4.395,1.117s-1.991,1.686-1.991,2.825c0,0.384,0.257,1.264,0.809,2.034
		C325.966,67.415,326.814,68.072,327.215,68.314z M403.253,82.21c-2.744-4.005-7.59-6.021-14.563-6.021
		c-4.694,0-8.568,1.287-11.625,3.861c-3.056,2.574-4.585,6.664-4.585,12.272c0,4.706,1.126,8.396,3.378,11.072
		c0.504,0.731,1.068,1.408,1.714,2.011c2.928,2.727,7.104,4.09,12.526,4.09c5.348,0,9.442-1.391,12.28-4.172
		c2.838-2.782,4.257-6.736,4.257-11.862C406.636,88.642,405.505,84.895,403.253,82.21z M393.984,97.053
		c0,3.154-0.373,5.318-1.118,6.489c-0.747,1.173-1.92,1.759-3.521,1.759c-1.309,0-2.329-0.373-3.073-1.102
		c-0.042-0.08-0.091-0.155-0.131-0.239c-0.71-1.523-1.064-4.256-1.064-8.198v-7.426c0-5.301,1.582-7.952,4.748-7.952
		c1.264,0,2.266,0.385,3.013,1.145c0.764,1.392,1.146,3.959,1.146,7.705L393.984,97.053L393.984,97.053z M368.398,104.829
		c-0.077-0.13-0.699-0.942-0.699-0.942c-0.182-0.307-0.6-0.46-1.256-0.46c-0.218,0-0.527,0.033-0.928,0.098
		c-0.582,0.088-1.127,0.132-1.637,0.132c-1.009,0-1.777-0.236-2.328-0.685c-0.194-0.451-0.302-0.986-0.302-1.627V81.368h5.894
		c0.837,0,1.256-0.262,1.256-0.788v-2.004c0-0.329-0.249-0.54-0.699-0.654v-0.288c0-0.504-0.528-0.756-1.583-0.756h-4.868v-3.352
		c-0.125-1.116-0.237-2.058-0.56-2.87l-0.139-0.457c-1.832-3.855-5.663-4.165-7.247-4.117l-0.563,0.037
		c-0.093,0.009-0.148,0.017-0.148,0.017l0.005-0.009l-0.616,0.04c-1.164,0.087-1.746,0.394-1.746,0.92v5.389
		c0,1.314-0.145,2.261-0.436,2.841c-0.292,0.581-0.965,1.101-2.02,1.562c-0.801,0.372-1.201,0.788-1.201,1.249v1.643
		c0,0.327,0.234,0.53,0.699,0.613v0.329c0,0.438,0.418,0.656,1.256,0.656h1.211v20.779c0,1.763,0.495,3.156,1.469,4.192
		c1.196,2.101,3.792,3.156,7.799,3.156c2.109,0,4.366-0.345,6.767-1.034c2.402-0.69,3.603-1.276,3.603-1.759
		c0-0.065-0.055-0.164-0.164-0.296L368.398,104.829z M254.056,70.084c-13.668-4.006-19.661,4.964-21.406,8.404
		c-1.238,0.934-2.343,2.19-3.312,3.783v-4.452l-0.699,0.007v-0.949l-9.715,0.099c-1.019,0.022-1.528,0.252-1.528,0.69v1.611
		c0,0.108,0.082,0.551,0.469,0.985c0.236,0.266,0.76,0.563,0.939,0.679c0.29,0.18,0.542,0.373,0.762,0.578
		c0.21,0.412,0.34,0.852,0.34,1.338v20.273c0,0.92-0.583,1.544-1.747,1.873c-0.51,0.131-0.764,0.296-0.764,0.493v2.297
		c0,0.22,0.103,1.01,1.056,1.01h15.199c0.472,0,0.709-0.164,0.709-0.493v-1.643c0-0.084-0.109-0.538-0.529-0.965
		c-0.269-0.274-0.816-0.548-1.043-0.668c-0.49-0.28-0.862-0.575-1.178-0.879c-0.119-0.274-0.198-0.552-0.198-0.842V92.14
		c0-3.506,1.31-6.519,3.93-9.039c0.415,0.298,1.147,0.47,1.147,0.47C249.667,85.75,254.056,70.084,254.056,70.084z"/>
	<path fill="#5899CC" d="M350.345,80.164c0,0.658-0.542,1.191-1.209,1.191h-1.352c-0.667,0-1.209-0.534-1.209-1.191l0,0
		c0-3.185,0.541-1.192,1.209-1.192h1.352C349.803,78.972,350.345,79.506,350.345,80.164L350.345,80.164z"/>
	<path fill="#5899CC" d="M368.393,79.822c0,0.648-0.525,1.173-1.173,1.173h-2.31c-0.648,0-1.173-0.525-1.173-1.173v-1.778
		c0-0.648,0.525-1.173,1.173-1.173h2.31c0.648,0,1.173,0.525,1.173,1.173V79.822z"/>
	<rect x="227.805" y="76.871" fill="#5899CC" width="1.536" height="3.943"/>
	<path fill="#5899CC" d="M192.479,88.217c0,0,0,0.697,0,0.88s-0.11,0.843,1.448,1.283l-0.348-1.961L192.479,88.217z"/>
	<path fill="#5899CC" d="M208.536,59.909c0,0,0-1.409,0-1.858s-0.214-0.961-1.239-0.961s-1.794,0-1.794,0L208.536,59.909z"/>
</g>
</svg>
